<svg fill="none" height="32" viewBox="0 0 32 32" width="32" xmlns="http://www.w3.org/2000/svg" xmlns:xlink="http://www.w3.org/1999/xlink"><clipPath id="a"><path d="m0 0h32v32h-32z"/></clipPath><g clipPath="url(#a)"><path d="m32 0h-32v32h32z" fill="#fff"/><path d="m15.9853 14.6616c-2.6801 0-4.8608 2.1808-4.8608 4.8608 0 1.3033.5169 2.4879 1.3549 3.3617h7.0111c.838-.8738 1.3549-2.0584 1.3549-3.3617 0-2.68-2.1807-4.8608-4.8607-4.8608z" fill="#fbfb4b"/><g fill="#000"><path d="m16.5427 11.804h-1.1161l-.2357-3.804h1.5875z"/><path d="m21.3736 13.9685-.8555-.7174 2.2649-3.0654 1.2167 1.0204z"/><path d="m23.6827 18.7315-.1939-1.0997 3.7052-.8925.2757 1.5639z"/><path d="m11.4519 13.2511-.8556.7174-2.62609-2.7624 1.21671-1.0204z"/><path d="m8.48094 17.6318-.1939 1.0997-3.78704-.4283.2757-1.5639z"/><path d="m25.012 24.0001-1.1119-2.4237h-2.3025c.2351-.6411.3635-1.3331.3635-2.0547 0-3.2957-2.6812-5.9769-5.9769-5.9769-3.2956 0-5.9768 2.6812-5.9768 5.9769 0 .7216.1284 1.4136.3635 2.0547h-2.30248l-1.11188 2.4237zm-9.0271-9.2434c2.6279 0 4.765 2.1377 4.765 4.765 0 1.2633-.4951 2.4128-1.3004 3.2665h-6.9299c-.8053-.8537-1.3004-2.0032-1.3004-3.2665 0-2.6273 2.1378-4.765 4.765-4.765z"/></g></g></svg>